<?xml version="1.0" encoding="UTF-8" standalone="no"?>
<svg xmlns:inkscape="http://www.inkscape.org/namespaces/inkscape" xmlns:sodipodi="http://sodipodi.sourceforge.net/DTD/sodipodi-0.dtd" xmlns:xlink="http://www.w3.org/1999/xlink" xmlns="http://www.w3.org/2000/svg" xmlns:svg="http://www.w3.org/2000/svg" viewBox="0 0 200 200" version="1.1" id="svg1" sodipodi:docname="fingerprint.svg" inkscape:version="1.4.2 (ebf0e940d0, 2025-05-08)">
  <defs id="defs1">
    <linearGradient id="linearGradient1" inkscape:collect="always">
      <stop style="stop-color:#3f31b3;stop-opacity:1;" offset="0" id="stop1"/>
      <stop style="stop-color:#9e31b3;stop-opacity:1;" offset="0.6962688" id="stop2"/>
    </linearGradient>
    <linearGradient inkscape:collect="always" xlink:href="#linearGradient1" id="linearGradient2" x1="16.962455" y1="100.03313" x2="184.59699" y2="100.03313" gradientUnits="userSpaceOnUse"/>
    <filter style="color-interpolation-filters:sRGB;" inkscape:label="Drop Shadow" id="filter33" x="-0.042950576" y="-0.048021214" width="1.1037972" height="1.1160513">
      <feFlood result="flood" in="SourceGraphic" flood-opacity="0.498039" flood-color="rgb(0,0,0)" id="feFlood32"/>
      <feGaussianBlur result="blur" in="SourceGraphic" stdDeviation="3.000000" id="feGaussianBlur32"/>
      <feOffset result="offset" in="blur" dx="3.000000" dy="3.000000" id="feOffset32"/>
      <feComposite result="comp1" operator="in" in="flood" in2="offset" id="feComposite32"/>
      <feComposite result="comp2" operator="over" in="SourceGraphic" in2="comp1" id="feComposite33"/>
    </filter>
  </defs>
  <sodipodi:namedview id="namedview1" pagecolor="#ffffff" bordercolor="#000000" borderopacity="0.25" inkscape:showpageshadow="2" inkscape:pageopacity="0.0" inkscape:pagecheckerboard="0" inkscape:deskcolor="#d1d1d1" inkscape:zoom="3.995" inkscape:cx="100.37547" inkscape:cy="100" inkscape:window-width="1920" inkscape:window-height="1008" inkscape:window-x="0" inkscape:window-y="0" inkscape:window-maximized="1" inkscape:current-layer="svg1"/>
  <path fill="currentColor" fill-rule="evenodd" d="M 108.638 26.585 C 93.599 30.226, 81.290 38.908, 58.919 61.656 C 39.608 81.292, 37.500 84.919, 37.500 98.500 C 37.500 106.302, 37.882 108.328, 40.374 113.722 C 43.761 121.054, 51.610 128.978, 58.709 132.232 C 62.602 134.016, 65.374 134.433, 73.500 134.461 C 87.731 134.510, 91.124 132.548, 110.487 113.074 C 125.917 97.556, 128.732 95.762, 131 100 C 131.694 101.296, 131.737 102.616, 131.123 103.750 C 130.602 104.713, 123.499 112.076, 115.338 120.112 C 104.408 130.876, 98.920 135.518, 94.500 137.737 C 75.975 147.038, 55.591 143.688, 41.626 129.047 C 30.596 117.483, 26.600 102.634, 30.495 87.680 C 33.136 77.539, 35.719 74.033, 54.623 54.916 C 66.637 42.767, 73 35.611, 73 34.248 C 73 28.690, 68.869 25.982, 64.129 28.433 C 62.612 29.218, 53.663 37.764, 44.243 47.425 C 29.776 62.260, 26.564 66.118, 23.572 72.245 C 14.887 90.034, 14.764 106.579, 23.186 124 C 27.179 132.262, 39.011 144.264, 47.593 148.759 C 59.075 154.772, 75.154 156.674, 87.448 153.472 C 99.618 150.302, 106.303 145.725, 123.884 128.527 C 144.245 108.610, 146.352 104.776, 142.095 95.401 C 138.872 88.304, 131.715 84.893, 123.343 86.463 C 120.206 87.052, 116.888 89.827, 103.537 103.023 C 92.797 113.639, 86.014 119.549, 83 120.915 C 74.741 124.661, 64.955 123.221, 57.958 117.232 C 50.202 110.593, 47.565 101.503, 50.464 91.402 C 52.073 85.792, 53.032 84.631, 69.829 67.947 C 96.356 41.598, 103.208 37.863, 126 37.331 C 138.328 37.044, 139.652 36.833, 141.250 34.898 C 143.613 32.037, 143.454 30.363, 140.545 27.455 C 138.206 25.115, 137.540 25.004, 126.295 25.083 C 119.808 25.129, 111.862 25.805, 108.638 26.585 M 114 46.579 C 101.516 49.864, 96.645 53.301, 77.307 72.468 C 57.788 91.814, 56.879 93.211, 58.428 101.471 C 60.244 111.151, 72.384 116.930, 81.300 112.359 C 83.060 111.457, 91.700 103.664, 100.500 95.041 C 114.337 81.483, 117.145 79.185, 121.273 78.045 C 141.816 72.372, 159.508 93.300, 149.976 112 C 148.995 113.925, 139.712 123.841, 129.346 134.035 C 113.982 149.146, 109.190 153.251, 103.408 156.257 C 93.228 161.548, 86.428 163.072, 73.702 162.913 C 64.658 162.800, 62.586 163.065, 60.952 164.544 C 58.230 167.007, 58.512 170.471, 61.635 172.927 C 63.943 174.743, 65.654 175, 75.425 175 C 87.969 175, 94.937 173.548, 105.342 168.765 C 115.616 164.041, 119.576 160.829, 139.769 140.838 C 154.553 126.202, 158.845 121.336, 161.033 116.736 C 169.718 98.468, 162.501 78.139, 143.840 68.313 C 139.019 65.775, 137.529 65.501, 128.500 65.501 C 113.929 65.500, 110.761 67.285, 90.959 86.664 C 82.340 95.099, 74.638 102, 73.844 102 C 71.925 102, 70 99.989, 70 97.985 C 70 97.097, 77.313 89.161, 86.250 80.350 C 106.132 60.749, 112.683 57.092, 128.040 57.024 C 154.765 56.907, 176.297 81.800, 172.086 107.948 C 170.037 120.668, 166.683 125.681, 146.937 145.534 C 131.279 161.277, 129 163.970, 129 166.728 C 129 169.956, 131.868 173, 134.909 173 C 137.027 173, 171.448 138.495, 175.707 132.102 C 186.314 116.181, 187.537 94.052, 178.796 76.202 C 172.016 62.356, 157.140 50.504, 141.540 46.522 C 134.147 44.634, 121.288 44.661, 114 46.579" id="path1" style="fill:url(#linearGradient2);fill-opacity:1;filter:url(#filter33)"/>
</svg>
